<svg xmlns="http://www.w3.org/2000/svg" width="77" height="77" viewBox="0 0 77 77">
  <metadata><?xpacket begin="﻿" id="W5M0MpCehiHzreSzNTczkc9d"?>
<x:xmpmeta xmlns:x="adobe:ns:meta/" x:xmptk="Adobe XMP Core 5.6-c138 79.159824, 2016/09/14-01:09:01        ">
   <rdf:RDF xmlns:rdf="http://www.w3.org/1999/02/22-rdf-syntax-ns#">
      <rdf:Description rdf:about=""/>
   </rdf:RDF>
</x:xmpmeta>
                                                                                                    
                                                                                                    
                                                                                                    
                                                                                                    
                                                                                                    
                                                                                                    
                                                                                                    
                                                                                                    
                                                                                                    
                                                                                                    
                                                                                                    
                                                                                                    
                                                                                                    
                                                                                                    
                                                                                                    
                                                                                                    
                                                                                                    
                                                                                                    
                                                                                                    
                                                                                                    
                           
<?xpacket end="w"?></metadata>
<defs>
    <style>
      .cls-1 {
        fill: #9b8474;
        fill-rule: evenodd;
      }
    </style>
  </defs>
  <path class="cls-1" d="M1053,6432.5a38.5,38.5,0,1,0,38.5-38.5A38.542,38.542,0,0,0,1053,6432.5Zm0.54,0a37.96,37.96,0,1,1,37.96,37.96A38,38,0,0,1,1053.54,6432.5Zm0.71,0a37.235,37.235,0,1,0,37.25-37.25A37.285,37.285,0,0,0,1054.25,6432.5Zm1.69,0a35.56,35.56,0,1,1,35.56,35.56A35.585,35.585,0,0,1,1055.94,6432.5Zm6.2,6.39v-13.07h13.54v2.37h-8.94v2.68h6.2v2.36h-6.2v3.2h8.94v2.46h-13.54Zm21.88,0.16a9.373,9.373,0,0,1-4.98-1.34,6.828,6.828,0,0,1,.16-10.83,10.314,10.314,0,0,1,5.18-1.28c3.73,0,6.13,1.5,6.9,3.74l-4.32.51a2.676,2.676,0,0,0-2.74-1.92c-2.05,0-3.04,1.12-3.04,4.31,0,3.23.93,4.41,3.29,4.41a3.714,3.714,0,0,0,3.39-2.11l3.7,0.74C1090.19,6437.93,1087.73,6439.05,1084.02,6439.05Zm13.9-10.83v2.71h7.06v2.37h-7.06v5.56h-4.6v-13.04h13.58v2.4h-8.98Zm18.25,10.67-1.09-2.97h-4.7l-1.08,2.97h-4.76l5.97-13.07h4.41l6.04,13.04h-4.79v0.03Zm-3.42-8.75-1.44,3.41h2.84Zm3.26,11.11,3.61,1.44-4.41-1.44h-7.8l9.97,6.17-11.5-6.17h-3.2l11.7,10.45-13.26-10.45h-1.57l3.87,4.92h-0.9l-4.41-4.92h-0.83l2.65,4.92h-1.02l-3.06-4.92h-0.48l1.69,5.15v0.61a2.446,2.446,0,0,0-1.02-.68l-2.05-5.08h-0.29l0.71,4.92h-1.02l-1.03-4.92h-0.22l-0.16,4.92h-0.96l-0.16-4.92h-0.22l-1.22,5.88h0c-0.03-.12-0.25-0.96-0.25-0.96h-0.55l0.71-4.92h-0.29l-1.98,4.92h-1.02l1.63-4.92h-0.48l-3.04,4.92h-1.02l2.65-4.92h-0.83l-4.41,4.92h-0.99l3.87-4.92h-1.54l-6.26,4.92h-0.06v0.07l-6.97,5.49,11.73-10.48h-3.17l-11.56,6.23,10.03-6.23h-7.73l-4.54,1.51,3.74-1.51h-4.73a30.428,30.428,0,0,0,58.28,0h-4.63Zm-11.99,5.63h0.23a1.676,1.676,0,0,1,1.98,1.79,1.543,1.543,0,0,1-.03.38v0.06a3.12,3.12,0,0,1-.1.32,1.417,1.417,0,0,1-.25.42h0a1.167,1.167,0,0,1-.2.19c-0.03,0-.03.03-0.06,0.03a0.961,0.961,0,0,1-.22.16l1.05,2.91-1.28.16-0.92-2.75h-0.58v2.72h-1.24v-6.46h0.76l0.86,0.07h0Zm-2.33,2.59v1.18l-0.29-.48v-1.28Zm-3.9-2.59h3.65v1.18h-2.43v1.31h1.66v1.15h-1.66v1.57h2.39v1.21h-3.64v-4.76l0.03-1.66h0Zm-3.25,0h0.83a0.323,0.323,0,0,1,.16.03h0c0.12,0.03.25,0.06,0.38,0.1h0c0.06,0.03.13,0.06,0.19,0.09h0a1.33,1.33,0,0,1,.35.26,1.419,1.419,0,0,1,.42,1.05h0v0.1a1.564,1.564,0,0,1-.64,1.4,1.783,1.783,0,0,1,.89,1.66c0,0.16-.03.29-0.03,0.42v0.06c-0.03.13-.06,0.23-0.09,0.32a0.435,0.435,0,0,0-.04.07,1.2,1.2,0,0,1-.16.25l-0.03.03c-0.06.07-.13,0.13-0.19,0.2l-0.03.03a1.339,1.339,0,0,1-.23.13,0.029,0.029,0,0,0-.03.03c-0.09.03-.16,0.06-0.25,0.09H1096a1.437,1.437,0,0,1-.51.1H1093v-1.09h0.26V6448H1093v-1.12h1.54Zm-5.95,0,0.8,2.94,0.8-2.94h1.6v6.42h-1.18v-4.09l-0.84,2.94h-0.83l-0.83-2.94v4.09h-1.18v-6.42h1.66Zm-4.25,4.47,0.04-.1h0.67l-0.07.16h-0.64v-0.06Zm1.66-2.56v-0.03h0v0.03Zm-2.33-1.91H1086v1.18h-2.39v1.31h1.66v1.15h-1.66v1.57h2.43v1.21h-3.65v-6.42h1.28Zm-2.59,0v6.42h-1.18v-4.09l-0.83,2.94h-0.83l-0.73-2.62h0l-0.1-.32v4.09h-1.18v-6.45h1.6l0.79,2.93,0.61-2.23h0l0.19-.7h0.42l1.24,0.03h0Zm-5.52,4.37v0.48l-3.29,3.68Zm3.64,2.24v0.54h0.06l-2.71,4.38Zm4.25,0.54h0.45l-2.62,6.59Zm4.02,0h0.52l-1.67,7.93Zm3.77,0h0.52l-0.26,8.38Zm3.81,0h0.09a2.125,2.125,0,0,0,.42-0.03l1.15,7.96Zm4.09,0h0.44l2.18,6.59Zm4.63,0h0.35l2.33,4.38Zm2.55-3.57a1.324,1.324,0,0,0,.26-0.36l4.19,5.31Zm-1.98-.96h0.13c0.03,0,.07,0,0.07-0.03a0.033,0.033,0,0,0,.03-0.04,0.1,0.1,0,0,0,.06-0.03,0.029,0.029,0,0,0,.03-0.03,0.435,0.435,0,0,0,.07-0.06l0.03-.04c0.03-.03.03-0.06,0.06-0.09v-0.03a0.148,0.148,0,0,0,.04-0.13v-0.03a1.089,1.089,0,0,0,.03-0.32,0.675,0.675,0,0,0-.83-0.74h-0.51v1.54h0.57A0.894,0.894,0,0,0,1104.34,6449.5Zm-9.36-.07a0.635,0.635,0,0,0,.67-0.73,0.626,0.626,0,0,0-.7-0.7h-0.48v1.43h0.51Zm-0.03,2.81a1.382,1.382,0,0,0,.35-0.03h0a0.857,0.857,0,0,1,.13-0.03c0.03,0,.03-0.03.06-0.03a0.488,0.488,0,0,0,.07-0.03,0.029,0.029,0,0,0,.03-0.03,0.169,0.169,0,0,0,.06-0.07,0.037,0.037,0,0,0,.04-0.03,0.161,0.161,0,0,0,.06-0.13,0.029,0.029,0,0,1,.03-0.03,0.63,0.63,0,0,0,.03-0.13v-0.06c0-.07.04-0.13,0.04-0.23a0.379,0.379,0,0,0-.04-0.22,0.06,0.06,0,0,0-.03-0.06c0-.04-0.03-0.1-0.03-0.13s-0.03-.03-0.03-0.06a0.359,0.359,0,0,0-.07-0.1,0.029,0.029,0,0,0-.03-0.03,0.435,0.435,0,0,1-.06-0.07,0.488,0.488,0,0,0-.07-0.03c-0.03,0-.03-0.03-0.06-0.03s-0.03-.03-0.06-0.03a0.067,0.067,0,0,1-.07-0.03,0.094,0.094,0,0,1-.09-0.04h-0.04c-0.06,0-.12-0.03-0.16-0.03h-0.54v1.63h0.23l0.25,0.06h0Zm-6.84-36.35h0.64l-0.32-2.3Zm32.46,7.57a30.44,30.44,0,0,0-58.14,0h3.89l-2.97-1.18,3.61,1.18h8.15l-9.55-5.91,11.02,5.91h3.39l-11.41-10.19,12.94,10.19h1.69l-3.77-4.76a2.125,2.125,0,0,0,.45.03,2.425,2.425,0,0,0,.48-0.03l4.28,4.79h0.93l-2.59-4.89h1.02l3,4.86h0.55l-1.63-4.86h1.02l1.95,4.86h0.35l-0.8-5.5h0l0.03,0.13,0.1,0.51h0.99l1.02,4.86h0.29l0.16-4.86h1.02l0.16,4.86h0.29l1.02-4.86h0.99l-0.7,4.86h0.35l1.95-4.86h0.99l-1.6,4.86h0.55l3-4.86h0.99l-2.62,4.86h0.93l4.28-4.86h0.96l-3.84,4.86h1.66l12.98-10.23-11.44,10.23h3.35l11.09-5.94-9.62,5.94h8.09l3.73-1.25-3.06,1.25h4.05Zm-36.61-12.3h-0.48l-2.2-6.78Zm-4.67-.07-0.31.1-2.46-4.57Zm-7.06-1.5,5.21,5.82v0.76Zm9.37,4.67h-1.22v-0.87c0-.09-0.03-0.16-0.03-0.28a2.609,2.609,0,0,0-.06-0.26,0.489,0.489,0,0,0-.16-0.16,0.519,0.519,0,0,0-.23-0.06c-0.35,0-.54.32-0.54,0.92v2.66c0,0.6.19,0.89,0.54,0.89a0.354,0.354,0,0,0,.26-0.1,0.716,0.716,0,0,0,.16-0.25,1.585,1.585,0,0,0,.06-0.32c0-.1.03-0.22,0.03-0.38v-0.64h1.22v0.51a3.3,3.3,0,0,1-.07.64,2.806,2.806,0,0,1-.19.6,1.438,1.438,0,0,1-.32.48,1.677,1.677,0,0,1-.48.32,2.079,2.079,0,0,1-.7.13,1.537,1.537,0,0,1-.7-0.13,1.269,1.269,0,0,1-.51-0.32,1.1,1.1,0,0,1-.32-0.48,2.02,2.02,0,0,1-.2-0.6,5.208,5.208,0,0,1-.06-0.67v-2.05c0-1.47.61-2.2,1.79-2.2a2.217,2.217,0,0,1,.67.09,1.287,1.287,0,0,1,.48.29,1.124,1.124,0,0,1,.32.45,1.423,1.423,0,0,1,.19.57,4.184,4.184,0,0,1,.07.67v0.55Zm4.28,3.7h-1.25v-2.75h-0.89v2.75h-1.25v-6.16h1.25v2.52h0.89v-2.52h1.25v6.16Zm0.38-14.95,1.69,8.15h-0.54Zm2.81,14.95-0.25-1.31h-0.8l-0.26,1.31h-1.21l1.34-6.16h1.12l1.34,6.16h-1.28Zm17.35-11.4-2.49,4.66a1.421,1.421,0,0,0-.35-0.03Zm-9.78-3.55-1.18,8.15h-0.51Zm-5.17-.45,0.25,8.6h-0.51Zm1.69,15.4-0.7-2.84h-0.19v2.84h-1.25v-6.16h1.37a3.606,3.606,0,0,1,.84.09,1.861,1.861,0,0,1,.6.29,1.172,1.172,0,0,1,.42.51,2.038,2.038,0,0,1,.13.77v0.35a1.955,1.955,0,0,1-.07.35,0.911,0.911,0,0,1-.13.35,0.924,0.924,0,0,1-.25.29,1.265,1.265,0,0,1-.39.26q0.585,1.77.96,2.97h-1.34v-0.07Zm1.92-4.06-0.38,2.72c-0.13-.41-0.29-0.89-0.45-1.37,0.03,0,.03-0.04.06-0.04a1.626,1.626,0,0,0,.39-0.44,1.733,1.733,0,0,0,.19-0.51c0.03-.16.06-0.32,0.09-0.45,0-.13.03-0.26,0.03-0.38v-0.07h0.13v0.54h-0.06Zm1.88-1.18v5.24h-1.24v-5.24h-0.9v-0.92h3.04v0.92h-0.9Zm0.96,3.1-0.32.93v-2.17l0.32-.77v2.01Zm3.2,2.14h-2.59v-6.16h2.59v0.86h-1.34v1.69h0.92v0.9h-0.92v1.91h1.34v0.8Zm0.09-1.72-0.12.22h-0.68v-0.25l0.23-.36h0.54v0.39h0.03Zm-1.75-5.08h-0.48l2.71-6.81Zm4.56,6.8-0.7-2.84h-0.19v2.84h-1.25v-6.16h1.38a3.518,3.518,0,0,1,.83.09,1.915,1.915,0,0,1,.61.29,1.151,1.151,0,0,1,.41.51,1.86,1.86,0,0,1,.13.77v0.35a1.346,1.346,0,0,1-.07.35,1.108,1.108,0,0,1-.12.35,1.134,1.134,0,0,1-.26.29,1.7,1.7,0,0,1-.38.26q0.57,1.77.96,2.97h-1.35v-0.07Zm1.41-1.69c-0.06-.19-0.13-0.38-0.19-0.58l5.46-6.1Zm-1.57-3.26a0.467,0.467,0,0,0-.12-0.22,0.29,0.29,0,0,0-.23-0.1h-0.41v1.66h0.35a0.349,0.349,0,0,0,.25-0.09,0.633,0.633,0,0,0,.16-0.26,0.8,0.8,0,0,0,.07-0.25c0-.1.03-0.16,0.03-0.23v-0.22C1103.93,6413.2,1103.9,6413.11,1103.86,6413.01Zm-10.86,0a0.407,0.407,0,0,0-.13-0.22,0.257,0.257,0,0,0-.22-0.1h-0.42v1.66h0.36a0.366,0.366,0,0,0,.25-0.09,0.633,0.633,0,0,0,.16-0.26,1.222,1.222,0,0,0,.07-0.25c0-.07.03-0.16,0.03-0.23v-0.22C1093.07,6413.2,1093.03,6413.11,1093,6413.01Z" transform="translate(-1053 -6394)"/>
</svg>
