<svg xmlns="http://www.w3.org/2000/svg" width="324" height="86" viewBox="0 0 324 86">
  <metadata><?xpacket begin="﻿" id="W5M0MpCehiHzreSzNTczkc9d"?>
<x:xmpmeta xmlns:x="adobe:ns:meta/" x:xmptk="Adobe XMP Core 5.6-c138 79.159824, 2016/09/14-01:09:01        ">
   <rdf:RDF xmlns:rdf="http://www.w3.org/1999/02/22-rdf-syntax-ns#">
      <rdf:Description rdf:about=""/>
   </rdf:RDF>
</x:xmpmeta>
                                                                                                    
                                                                                                    
                                                                                                    
                                                                                                    
                                                                                                    
                                                                                                    
                                                                                                    
                                                                                                    
                                                                                                    
                                                                                                    
                                                                                                    
                                                                                                    
                                                                                                    
                                                                                                    
                                                                                                    
                                                                                                    
                                                                                                    
                                                                                                    
                                                                                                    
                                                                                                    
                           
<?xpacket end="w"?></metadata>
<defs>
    <style>
      .cls-1 {
        fill: #fff;
        fill-rule: evenodd;
      }
    </style>
  </defs>
  <path class="cls-1" d="M221.107,85a43.262,43.262,0,1,1-43.262-43A43.16,43.16,0,0,1,221.107,85Zm-74.434,25.312h52.159a42.431,42.431,0,0,0,7.241-23.848A42.872,42.872,0,0,0,182.325,48.1,107.016,107.016,0,0,1,146.673,110.312ZM96.661,104.64V100h7.794v4.636a0.612,0.612,0,0,1-.614.731v0.305h4.234v-0.305c-0.552-.122-0.614-0.244-0.614-0.731V93.356a0.612,0.612,0,0,1,.614-0.732v-0.3h-4.234v0.3c0.552,0.122.614,0.244,0.614,0.732V97.5H96.661V93.356a0.612,0.612,0,0,1,.614-0.732v-0.3H93.041v0.3a0.612,0.612,0,0,1,.614.732v11.223a0.611,0.611,0,0,1-.614.731v0.306h4.234V105.31A0.545,0.545,0,0,1,96.661,104.64Zm27.675-1.342h-8.652V99.821h5.4a0.613,0.613,0,0,1,.736.61h0.307V97.016H121.82a0.586,0.586,0,0,1-.736.61h-5.4V94.637h8.468a0.614,0.614,0,0,1,.737.61H125.2v-3.66h-0.306a0.587,0.587,0,0,1-.737.61H112.125v0.427a0.612,0.612,0,0,1,.614.732v11.223a0.612,0.612,0,0,1-.614.731v0.306h12.211a0.614,0.614,0,0,1,.737.609h0.307v-3.659h-0.307C124.95,103.237,124.827,103.3,124.336,103.3ZM76.166,90.367H82v14.151a0.721,0.721,0,0,1-.675.853v0.367H85.8v-0.367a0.7,0.7,0,0,1-.675-0.853V90.367h5.829a0.687,0.687,0,0,1,.8.732h0.368V86.951H91.752c-0.123.61-.246,0.732-0.8,0.732H76.166a0.687,0.687,0,0,1-.8-0.732H75v4.087h0.368C75.491,90.428,75.614,90.367,76.166,90.367ZM257.5,95.735l2.21,4.7h-4.48l2.27-4.7h0Zm-7.793,9.941h4.173v-0.305a0.6,0.6,0,0,1-.614-0.609,1.894,1.894,0,0,1,.123-0.488l0.921-2.074h6.2l0.982,2.074a1.438,1.438,0,0,1,.123.488,0.7,0.7,0,0,1-.614.609v0.305h4.848v-0.305a2.046,2.046,0,0,1-1.289-1.281L259.4,93.661a1.413,1.413,0,0,1-.123-0.488c0-.3.184-0.427,0.614-0.549v-0.3h-4.541v0.3a0.734,0.734,0,0,1,.736.61,0.855,0.855,0,0,1-.123.366l-5.031,10.43a1.735,1.735,0,0,1-1.228,1.28v0.366h0ZM266.332,93.9l4.848,10.43a1.436,1.436,0,0,1,.122.487,0.7,0.7,0,0,1-.613.61v0.306h4.847v-0.306a0.6,0.6,0,0,1-.613-0.61,0.782,0.782,0,0,1,.061-0.426l4.725-10.43a1.64,1.64,0,0,1,1.227-1.281V92.38H276.4v0.244c0.491,0.122.675,0.305,0.675,0.549a1.885,1.885,0,0,1-.122.488l-3.682,8.173L269.4,93.661a1.436,1.436,0,0,1-.123-0.488c0-.3.184-0.427,0.675-0.549v-0.3h-4.725v0.3a1.97,1.97,0,0,1,1.105,1.281h0ZM286.95,104.64V93.356a0.612,0.612,0,0,1,.614-0.732v-0.3H283.33v0.3a0.612,0.612,0,0,1,.613.732v11.223a0.611,0.611,0,0,1-.613.731v0.306h4.234V105.31a0.545,0.545,0,0,1-.614-0.67h0Zm18.961-1.952v-2.623a0.662,0.662,0,0,1,.614-0.793V98.967h-6.382a0.613,0.613,0,0,1-.736-0.61H299.1v3.111h0.307a0.586,0.586,0,0,1,.736-0.61h3.314v1.83a11.783,11.783,0,0,1-4.05.854c-3.252,0-5.584-2.135-5.584-4.514,0-2.745,2.086-4.7,5.154-4.7,2.393,0,4.664,1.1,4.664,1.768v0.122l0.307,0.183,1.657-3.172-0.307-.183a4.012,4.012,0,0,1-.675.122c-0.675,0-2.332-1.1-5.4-1.1-4.909,0-8.1,3.05-8.1,6.953s3.191,6.954,7.793,6.954a16.2,16.2,0,0,0,7.609-2.2v-0.305a0.69,0.69,0,0,1-.614-0.793h0Zm9.634-6.953,2.21,4.7h-4.48l2.27-4.7h0Zm-7.793,9.941h4.173v-0.305a0.6,0.6,0,0,1-.614-0.609,1.894,1.894,0,0,1,.123-0.488l0.921-2.074h6.2l0.982,2.074a1.438,1.438,0,0,1,.123.488,0.7,0.7,0,0,1-.614.609v0.305h4.848v-0.305a2.046,2.046,0,0,1-1.289-1.281l-5.216-10.429a1.434,1.434,0,0,1-.122-0.488c0-.3.184-0.427,0.613-0.549v-0.3h-4.541v0.3a0.736,0.736,0,0,1,.737.61,0.869,0.869,0,0,1-.123.366l-5.032,10.43a1.734,1.734,0,0,1-1.227,1.28v0.366h0.061Zm33.873-6.77c0-2.623,1.9-4.513,4.909-4.513,3.068,0,4.971,1.891,4.971,4.513s-1.9,4.514-4.91,4.514c-3.129,0-4.97-1.83-4.97-4.514h0Zm4.909-6.831c-4.664,0-7.732,3.05-7.732,6.892s3.191,6.953,7.732,6.953c4.664,0,7.793-3.11,7.793-6.953s-3.068-6.892-7.793-6.892h0Zm18.286,2.5c2.394,0,3.5.366,3.5,1.769s-1.1,1.891-3.436,1.891h-4.173v-3.66h4.111Zm-7.67,11.1h4.234v-0.305c-0.552-.122-0.614-0.244-0.614-0.731v-4.392h3.621l2.823,4.087a2.526,2.526,0,0,1,.306.609c0,0.244-.184.366-0.552,0.427v0.305h4.971v-0.305a3.635,3.635,0,0,1-1.6-1.281l-2.823-3.964c2.455-.671,3.621-1.952,3.621-3.965,0-2.379-1.9-3.9-5.523-3.9H357.15v0.366a0.612,0.612,0,0,1,.614.732v11.223a0.612,0.612,0,0,1-.614.731v0.366h0Zm17.305-1.036,0.429,0.122a0.386,0.386,0,0,1,.307-0.305,14.023,14.023,0,0,0,5.952,1.4c4.112,0,6.75-2.014,6.75-4.453,0-2.135-1.718-3.6-5.032-3.965-3.313-.427-5.277,0-5.277-1.464,0-.915,1.166-1.646,3.314-1.646,2.516,0,4.725,1.22,4.725,1.952v0.122l0.429,0.244,1.657-3.172-0.307-.122a1.209,1.209,0,0,1-.491.244c-0.491,0-2.7-1.525-5.952-1.525-3.866,0-6.259,1.83-6.259,4.392,0,2.2,1.6,3.415,4.786,3.72,3.069,0.305,5.339-.122,5.339,1.525,0,0.976-1.411,1.83-3.559,1.83-2.577,0-5.032-1.1-5.032-1.708a0.367,0.367,0,0,1,.061-0.244l-0.429-.183-1.411,3.233h0Zm-142.18-12.2,11.107,11.711a1.218,1.218,0,0,1,.429.67,0.524,0.524,0,0,1-.491.427v0.367h5.032v-0.367a0.669,0.669,0,0,1-.675-0.853V88.781c0-.549.123-0.671,0.737-0.854V87.562H244v0.366a0.708,0.708,0,0,1,.737.854v11.65L234.055,89.087a1.213,1.213,0,0,1-.43-0.671,0.524,0.524,0,0,1,.491-0.427V87.623h-5.523v0.366a0.709,0.709,0,0,1,.737.854v15.736c0,0.548-.123.67-0.737,0.853V105.8h4.418v-0.366a0.669,0.669,0,0,1-.675-0.853V92.441h-0.061ZM324.689,94.7h4.172v9.943a0.611,0.611,0,0,1-.613.731v0.305h4.234v-0.305c-0.552-.122-0.614-0.244-0.614-0.731V94.7h4.173a0.613,0.613,0,0,1,.736.611h0.307v-3.66h-0.307a0.585,0.585,0,0,1-.736.61H324.75a0.613,0.613,0,0,1-.736-0.61h-0.307v3.6h0.307c0.061-.488.184-0.549,0.675-0.549h0Zm70.138-8.6a4.088,4.088,0,1,1-.061,8.173,4.167,4.167,0,0,1-4.234-4.087,4.221,4.221,0,0,1,4.3-4.087h0Zm-0.061.854a3.265,3.265,0,1,0,3.191,3.294,3.16,3.16,0,0,0-3.191-3.294h0Zm-0.614,5.368H393.17V88.232a10,10,0,0,1,1.6-.122,2.386,2.386,0,0,1,1.411.3,1.064,1.064,0,0,1,.43.854,1.093,1.093,0,0,1-.859.976v0.061a1.08,1.08,0,0,1,.736.976,3.51,3.51,0,0,0,.307.976h-0.982a2.989,2.989,0,0,1-.307-0.976,0.7,0.7,0,0,0-.859-0.61h-0.429v1.647h-0.062Zm0-2.318h0.43c0.552,0,.982-0.183.982-0.61,0-.366-0.246-0.61-0.86-0.61a1.364,1.364,0,0,0-.552.061V90h0Z" transform="translate(-75 -42)"/>
</svg>
